<?xml version="1.0" standalone="no"?>
<!DOCTYPE svg PUBLIC "-//W3C//DTD SVG 20010904//EN"
 "http://www.w3.org/TR/2001/REC-SVG-20010904/DTD/svg10.dtd">
<svg version="1.0" xmlns="http://www.w3.org/2000/svg"
 width="512.000000pt" height="512.000000pt" viewBox="0 0 512.000000 512.000000"
 preserveAspectRatio="xMidYMid meet">
<metadata>
Created by potrace 1.14, written by Peter Selinger 2001-2017
</metadata>
<g transform="translate(0.000000,512.000000) scale(0.100000,-0.100000)"
fill="#000000" stroke="none">
<path d="M2345 4289 c-48 -8 -148 -37 -393 -112 l-114 -35 -121 70 c-67 39
-138 72 -157 75 -31 4 -71 -17 -345 -178 -170 -100 -506 -296 -745 -436 -239
-139 -443 -263 -452 -274 -16 -19 -18 -45 -18 -218 l0 -197 55 -109 c31 -60
75 -134 98 -165 24 -30 56 -88 71 -128 59 -153 178 -297 292 -353 89 -44 142
-39 252 24 l82 47 637 -322 c620 -313 979 -507 994 -538 3 -8 17 -51 29 -95
70 -258 263 -470 427 -468 45 0 66 9 175 71 l123 71 40 -24 c22 -12 60 -35 85
-49 176 -104 347 -143 511 -116 112 18 328 94 474 165 228 112 429 256 600
430 133 135 175 230 175 400 0 79 -1 81 -47 150 -25 39 -57 83 -70 98 -17 22
-23 41 -23 78 0 39 -5 55 -24 74 -20 20 -29 23 -55 15 -18 -5 -31 -5 -31 0 0
18 -288 298 -395 384 -60 48 -175 131 -255 183 -80 52 -170 112 -199 132 l-55
36 -84 205 c-46 113 -86 212 -89 220 -56 143 -122 249 -213 340 -92 93 -111
105 -658 417 -179 103 -271 132 -422 137 -58 2 -127 0 -155 -5z"/>
</g>
</svg>
